<?xml version="1.0" encoding="UTF-8" standalone="no"?>
<svg width="265px" height="79px" viewBox="0 0 265 79" version="1.1" xmlns="http://www.w3.org/2000/svg" xmlns:xlink="http://www.w3.org/1999/xlink">
    <!-- Generator: Sketch 40 (33762) - http://www.bohemiancoding.com/sketch -->
    <title>app-store-button</title>
    <desc>Created with Sketch.</desc>
    <defs></defs>
    <g id="Page-1" stroke="none" stroke-width="1" fill="none" fill-rule="evenodd">
        <g id="hero" transform="translate(-1022.000000, -908.000000)">
            <g id="app-store-button" transform="translate(1022.000000, 908.000000)">
                <g id="US_UK_Download_on_the">
                    <g id="Group">
                        <path d="M255.571889,79 L9.28285185,79 C4.16540741,79 0,74.7972 0,69.652325 L0,9.33385 C0,4.187 4.16540741,0 9.28285185,0 L255.571889,0 C260.68737,0 265,4.187 265,9.33385 L265,69.652325 C265,74.7972 260.68737,79 255.571889,79 L255.571889,79 L255.571889,79 Z" id="Shape" fill="#A6A6A6"></path>
                        <path d="M263.099852,69.6543 C263.099852,73.8334 259.735333,77.21855 255.573852,77.21855 L9.28285185,77.21855 C5.12333333,77.21855 1.74703704,73.8334 1.74703704,69.6543 L1.74703704,9.331875 C1.74703704,5.15475 5.12333333,1.75775 9.28285185,1.75775 L255.571889,1.75775 C259.735333,1.75775 263.097889,5.15475 263.097889,9.331875 L263.099852,69.6543 L263.099852,69.6543 L263.099852,69.6543 Z" id="Shape" fill="#000000"></path>
                        <g transform="translate(24.555556, 11.850000)" id="Shape" fill="#FFFFFF">
                            <path d="M34.5845926,27.2234 C34.5276667,20.857975 39.7648519,17.761175 40.0043333,17.617 C37.0382963,13.266075 32.441037,12.6716 30.8255185,12.6242 C26.9643704,12.215375 23.219037,14.948775 21.2521481,14.948775 C19.246,14.948775 16.2171481,12.6637 12.9527407,12.73085 C8.752,12.796025 4.82214815,15.24305 2.66681481,19.04295 C-1.78125926,26.790875 1.53614815,38.17675 5.79774074,44.439475 C7.92951852,47.50665 10.4205185,50.9313 13.681,50.810825 C16.8708148,50.6785 18.0623333,48.764725 21.9117037,48.764725 C25.7257407,48.764725 26.8446296,50.810825 30.1698889,50.7338 C33.5932963,50.6785 35.7486296,47.6528 37.8058148,44.557975 C40.2693333,41.042475 41.2586667,37.5803 41.2979259,37.40255 C41.2174444,37.3749 34.6493704,34.852825 34.5845926,27.2234 L34.5845926,27.2234 Z"></path>
                            <path d="M28.3031111,8.50435 C30.0187407,6.345675 31.1925926,3.40885 30.8667407,0.428575 C28.3835926,0.539175 25.2781852,2.1567 23.4899259,4.267975 C21.9077778,6.128425 20.4944444,9.177825 20.8595556,12.045525 C23.6489259,12.254875 26.5128889,10.62945 28.3031111,8.50435 L28.3031111,8.50435 Z"></path>
                        </g>
                        <g transform="translate(82.444444, 35.550000)" id="Shape" fill="#FFFFFF">
                            <path d="M22.8587037,26.6704 L18.4008148,26.6704 L15.9588889,18.950125 L7.47103704,18.950125 L5.14492593,26.6704 L0.804814815,26.6704 L9.21414815,0.3871 L14.4081481,0.3871 L22.8587037,26.6704 L22.8587037,26.6704 Z M15.2227778,15.711125 L13.0144444,8.848 C12.7808519,8.146875 12.3431111,6.495775 11.6972963,3.896675 L11.6187778,3.896675 C11.3616296,5.014525 10.9474444,6.665625 10.3781852,8.848 L8.20911111,15.711125 L15.2227778,15.711125 L15.2227778,15.711125 Z"></path>
                            <path d="M44.4846667,16.9613 C44.4846667,20.1845 43.619,22.73225 41.8876667,24.602575 C40.3369259,26.2675 38.4112593,27.098975 36.1126296,27.098975 C33.6314444,27.098975 31.8490741,26.202325 30.7635556,24.409025 L30.685037,24.409025 L30.685037,34.39265 L26.5,34.39265 L26.5,13.957325 C26.5,11.930975 26.447,9.8513 26.3449259,7.7183 L30.0254815,7.7183 L30.2590741,10.722275 L30.3375926,10.722275 C31.7332593,8.458925 33.8512963,7.329225 36.6936667,7.329225 C38.9157407,7.329225 40.7707407,8.21205 42.2547407,9.979675 C43.7426667,11.749275 44.4846667,14.075825 44.4846667,16.9613 L44.4846667,16.9613 Z M40.2211111,17.11535 C40.2211111,15.2707 39.8088889,13.74995 38.9805185,12.5531 C38.0755926,11.3049 36.8605185,10.6808 35.3372593,10.6808 C34.3047407,10.6808 33.3664444,11.0284 32.5282593,11.713725 C31.6881111,12.404975 31.1384815,13.30755 30.8813333,14.4254 C30.7517778,14.9468 30.687,15.3734 30.687,15.70915 L30.687,18.86915 C30.687,20.2477 31.1070741,21.410975 31.9472222,22.36095 C32.7873704,23.310925 33.8787778,23.784925 35.2214444,23.784925 C36.7977037,23.784925 38.0245556,23.172675 38.902,21.952125 C39.7814074,20.7296 40.2211111,19.118 40.2211111,17.11535 L40.2211111,17.11535 Z"></path>
                            <path d="M66.1498889,16.9613 C66.1498889,20.1845 65.2842222,22.73225 63.5509259,24.602575 C62.0021481,26.2675 60.0764815,27.098975 57.7778519,27.098975 C55.2966667,27.098975 53.5142963,26.202325 52.4307407,24.409025 L52.3522222,24.409025 L52.3522222,34.39265 L48.1671852,34.39265 L48.1671852,13.957325 C48.1671852,11.930975 48.1141852,9.8513 48.0121111,7.7183 L51.6926667,7.7183 L51.9262593,10.722275 L52.0047778,10.722275 C53.3984815,8.458925 55.5165185,7.329225 58.3608519,7.329225 C60.580963,7.329225 62.435963,8.21205 63.9238889,9.979675 C65.4059259,11.749275 66.1498889,14.075825 66.1498889,16.9613 L66.1498889,16.9613 Z M61.8863333,17.11535 C61.8863333,15.2707 61.4721481,13.74995 60.6437778,12.5531 C59.7388519,11.3049 58.5277037,10.6808 57.0024815,10.6808 C55.968,10.6808 55.0316667,11.0284 54.1915185,11.713725 C53.3513704,12.404975 52.8037037,13.30755 52.5465556,14.4254 C52.418963,14.9468 52.3522222,15.3734 52.3522222,15.70915 L52.3522222,18.86915 C52.3522222,20.2477 52.7722963,21.410975 53.6085185,22.36095 C54.4486667,23.30895 55.5400741,23.784925 56.8866667,23.784925 C58.4629259,23.784925 59.6897778,23.172675 60.5672222,21.952125 C61.4466296,20.7296 61.8863333,19.118 61.8863333,17.11535 L61.8863333,17.11535 Z"></path>
                            <path d="M90.3728519,19.2997 C90.3728519,21.5354 89.6014074,23.354375 88.0526296,24.7586 C86.3507407,26.293175 83.9814444,27.059475 80.9368889,27.059475 C78.1259259,27.059475 75.8724444,26.514375 74.1666296,25.4222 L75.1363333,21.912625 C76.9736667,23.030475 78.9896296,23.591375 81.1861852,23.591375 C82.7624444,23.591375 83.9892963,23.231925 84.8706667,22.516975 C85.7481111,21.802025 86.1858519,20.842175 86.1858519,19.645325 C86.1858519,18.578825 85.8246667,17.6802 85.1003333,16.951425 C84.3799259,16.22265 83.1766296,15.545225 81.4963333,14.91915 C76.9226296,13.202875 74.6377407,10.6887 74.6377407,7.38255 C74.6377407,5.2219 75.4386296,3.450325 77.0423704,2.071775 C78.6402222,0.69125 80.772,0.001975 83.4377037,0.001975 C85.8148519,0.001975 87.7895926,0.4187 89.3658519,1.250175 L88.3195926,4.682725 C86.8473704,3.876925 85.1827778,3.474025 83.3199259,3.474025 C81.8477037,3.474025 80.6974074,3.8394 79.872963,4.5662 C79.1761111,5.215975 78.8267037,6.00795 78.8267037,6.946075 C78.8267037,7.984925 79.2251852,8.84405 80.0260741,9.5195 C80.7229259,10.1436 81.989037,10.81905 83.8263704,11.547825 C86.073963,12.4583 87.7248148,13.522825 88.7867778,14.743375 C89.8448148,15.959975 90.3728519,17.4827 90.3728519,19.2997 L90.3728519,19.2997 Z"></path>
                            <path d="M104.209778,10.8783 L99.5968148,10.8783 L99.5968148,20.079825 C99.5968148,22.4202 100.409481,23.5894 102.038741,23.5894 C102.78663,23.5894 103.406926,23.524225 103.897667,23.393875 L104.013481,26.5914 C103.189037,26.901475 102.103519,27.0575 100.758889,27.0575 C99.1060741,27.0575 97.8144444,26.549925 96.882037,25.53675 C95.9535556,24.5216 95.4863704,22.81915 95.4863704,20.427425 L95.4863704,10.87435 L92.7382222,10.87435 L92.7382222,7.71435 L95.4863704,7.71435 L95.4863704,4.244275 L99.5968148,2.996075 L99.5968148,7.71435 L104.209778,7.71435 L104.209778,10.8783 L104.209778,10.8783 Z"></path>
                            <path d="M125.023074,17.038325 C125.023074,19.95145 124.194704,22.343175 122.541889,24.2135 C120.808593,26.139125 118.508,27.098975 115.640111,27.098975 C112.876259,27.098975 110.675778,26.17665 109.034741,24.332 C107.393704,22.48735 106.573185,20.158825 106.573185,17.35235 C106.573185,14.415525 107.417259,12.009975 109.111296,10.13965 C110.801407,8.26735 113.08237,7.3312 115.950259,7.3312 C118.714111,7.3312 120.938148,8.253525 122.616481,10.10015 C124.222185,11.891475 125.023074,14.2042 125.023074,17.038325 L125.023074,17.038325 Z M120.681,17.1746 C120.681,15.426725 120.31,13.9277 119.558185,12.677525 C118.680741,11.164675 117.426407,10.410225 115.801074,10.410225 C114.118815,10.410225 112.840926,11.16665 111.963481,12.677525 C111.211667,13.929675 110.840667,15.4524 110.840667,17.2536 C110.840667,19.001475 111.211667,20.5005 111.963481,21.7487 C112.868407,23.26155 114.132556,24.016 115.763778,24.016 C117.36163,24.016 118.615963,23.24575 119.520889,21.7092 C120.292333,20.435325 120.681,18.9205 120.681,17.1746 L120.681,17.1746 Z"></path>
                            <path d="M138.626407,11.421425 C138.212222,11.3444 137.770556,11.3049 137.307296,11.3049 C135.835074,11.3049 134.696556,11.863825 133.895667,12.98365 C133.198815,13.97115 132.849407,15.21935 132.849407,16.726275 L132.849407,26.6704 L128.666333,26.6704 L128.705593,13.68675 C128.705593,11.5024 128.652593,9.513575 128.548556,7.720275 L132.193778,7.720275 L132.346889,11.346375 L132.462704,11.346375 C132.90437,10.10015 133.601222,9.09685 134.555222,8.344375 C135.48763,7.66695 136.49463,7.329225 137.580148,7.329225 C137.966852,7.329225 138.316259,7.356875 138.626407,7.40625 L138.626407,11.421425 L138.626407,11.421425 Z"></path>
                            <path d="M157.343259,16.2977 C157.343259,17.05215 157.294185,17.6881 157.190148,18.207525 L144.635037,18.207525 C144.684111,20.079825 145.290667,21.5117 146.456667,22.4992 C147.514704,23.382025 148.882889,23.824425 150.563185,23.824425 C152.422111,23.824425 154.118111,23.5262 155.643333,22.927775 L156.298963,25.850775 C154.516593,26.632875 152.412296,27.02195 149.984111,27.02195 C147.063222,27.02195 144.770481,26.1569 143.101963,24.428775 C141.43737,22.70065 140.603111,20.380025 140.603111,17.468875 C140.603111,14.61105 141.378481,12.231175 142.931185,10.3332 C144.556519,8.30685 146.753074,7.293675 149.516926,7.293675 C152.231704,7.293675 154.286926,8.30685 155.682593,10.3332 C156.787741,11.942825 157.343259,13.933625 157.343259,16.2977 L157.343259,16.2977 Z M153.352556,15.205525 C153.380037,13.957325 153.107185,12.878975 152.539889,11.9685 C151.815556,10.797325 150.702556,10.212725 149.204815,10.212725 C147.83663,10.212725 146.72363,10.7835 145.873667,11.929 C145.176815,12.839475 144.76263,13.93165 144.635037,15.20355 L153.352556,15.20355 L153.352556,15.205525 Z"></path>
                        </g>
                        <g transform="translate(85.407407, 12.850000)" id="Shape" fill="#FFFFFF">
                            <path d="M10.8759259,6.917775 C10.8759259,9.24235 10.183,10.9922 8.79911111,12.167325 C7.5172963,13.2516 5.69566667,13.794725 3.33618519,13.794725 C2.16625926,13.794725 1.16514815,13.743375 0.326962963,13.640675 L0.326962963,0.93945 C1.42033333,0.7617 2.59811111,0.67085 3.87011111,0.67085 C6.1177037,0.67085 7.81174074,1.162625 8.95418519,2.146175 C10.234037,3.2581 10.8759259,4.847975 10.8759259,6.917775 L10.8759259,6.917775 Z M8.70685185,6.97505 C8.70685185,5.468125 8.31033333,4.31275 7.5172963,3.50695 C6.72425926,2.703125 5.56611111,2.300225 4.04088889,2.300225 C3.39311111,2.300225 2.84151852,2.343675 2.38414815,2.434525 L2.38414815,12.0903 C2.63737037,12.1298 3.10062963,12.147575 3.77392593,12.147575 C5.34822222,12.147575 6.5632963,11.70715 7.41914815,10.8263 C8.275,9.94545 8.70685185,8.6617 8.70685185,6.97505 L8.70685185,6.97505 Z"></path>
                            <path d="M22.3769259,8.948075 C22.3769259,10.37995 21.9705926,11.5531 21.1579259,12.47345 C20.306,13.419475 19.1772963,13.8915 17.7678889,13.8915 C16.4095185,13.8915 15.3279259,13.439225 14.5211481,12.530725 C13.7163333,11.6242 13.3139259,10.480675 13.3139259,9.102125 C13.3139259,7.660375 13.7281111,6.47735 14.5604074,5.558975 C15.3927037,4.6406 16.5115926,4.180425 17.921,4.180425 C19.2793704,4.180425 20.3707778,4.6327 21.1971852,5.539225 C21.9823704,6.420075 22.3769259,7.557675 22.3769259,8.948075 L22.3769259,8.948075 Z M20.2431852,9.015225 C20.2431852,8.1561 20.0586667,7.419425 19.6915926,6.8052 C19.2597407,6.0626 18.6453333,5.6913 17.8464074,5.6913 C17.02,5.6913 16.3918519,6.0626 15.96,6.8052 C15.590963,7.419425 15.4084074,8.16795 15.4084074,9.05275 C15.4084074,9.911875 15.5929259,10.64855 15.96,11.262775 C16.4055926,12.005375 17.0258889,12.376675 17.8267778,12.376675 C18.611963,12.376675 19.2283333,11.99945 19.671963,11.243025 C20.0527778,10.61695 20.2431852,9.87435 20.2431852,9.015225 L20.2431852,9.015225 Z"></path>
                            <path d="M37.797963,4.370025 L34.9025926,13.680175 L33.0181481,13.680175 L31.8187778,9.63735 C31.5145185,8.628125 31.2671852,7.624825 31.0748148,6.629425 L31.0375185,6.629425 C30.8588889,7.652475 30.6115556,8.6538 30.2935556,9.63735 L29.0195926,13.680175 L27.1135556,13.680175 L24.3909259,4.370025 L26.505037,4.370025 L27.5512963,8.796 C27.8045185,9.84275 28.0125926,10.840125 28.1794444,11.784175 L28.2167407,11.784175 C28.3698519,11.006025 28.6230741,10.014575 28.9803333,8.81575 L30.2935556,4.372 L31.9699259,4.372 L33.2281852,8.72095 C33.5324444,9.781525 33.7797778,10.8026 33.9701852,11.78615 L34.0271111,11.78615 C34.1664815,10.828275 34.3765185,9.8072 34.6552593,8.72095 L35.7780741,4.372 L37.797963,4.372 L37.797963,4.370025 Z"></path>
                            <path d="M48.4627407,13.680175 L46.4055556,13.680175 L46.4055556,8.347675 C46.4055556,6.704475 45.7852593,5.882875 44.5407407,5.882875 C43.9302593,5.882875 43.4375556,6.108025 43.0547778,6.5603 C42.6759259,7.012575 42.4835556,7.545825 42.4835556,8.1561 L42.4835556,13.6782 L40.4263704,13.6782 L40.4263704,7.03035 C40.4263704,6.2127 40.4008519,5.325925 40.3517778,4.366075 L42.1596667,4.366075 L42.2558519,5.82165 L42.3127778,5.82165 C42.5522593,5.369375 42.9095185,4.9961 43.3786667,4.697875 C43.9361481,4.350275 44.5603704,4.1745 45.2434815,4.1745 C46.1071852,4.1745 46.8256296,4.45495 47.3968519,5.017825 C48.1074444,5.7071 48.4627407,6.736075 48.4627407,8.102775 L48.4627407,13.680175 L48.4627407,13.680175 Z"></path>
                            <polygon points="54.1357037 13.680175 52.0804815 13.680175 52.0804815 0.0981 54.1357037 0.0981"></polygon>
                            <path d="M66.2471852,8.948075 C66.2471852,10.37995 65.8408519,11.5531 65.0281852,12.47345 C64.1762593,13.419475 63.0455926,13.8915 61.6381481,13.8915 C60.2778148,13.8915 59.1962222,13.439225 58.3914074,12.530725 C57.5865926,11.6242 57.1841852,10.480675 57.1841852,9.102125 C57.1841852,7.660375 57.5983704,6.47735 58.4306667,5.558975 C59.262963,4.6406 60.3818519,4.180425 61.7892963,4.180425 C63.1496296,4.180425 64.2390741,4.6327 65.0674444,5.539225 C65.8526296,6.420075 66.2471852,7.557675 66.2471852,8.948075 L66.2471852,8.948075 Z M64.1114815,9.015225 C64.1114815,8.1561 63.926963,7.419425 63.5598889,6.8052 C63.13,6.0626 62.5136296,5.6913 61.7166667,5.6913 C60.8882963,5.6913 60.2601481,6.0626 59.8302593,6.8052 C59.4612222,7.419425 59.2786667,8.16795 59.2786667,9.05275 C59.2786667,9.911875 59.4631852,10.64855 59.8302593,11.262775 C60.2758519,12.005375 60.8961481,12.376675 61.697037,12.376675 C62.4822222,12.376675 63.0966296,11.99945 63.5402593,11.243025 C63.923037,10.61695 64.1114815,9.87435 64.1114815,9.015225 L64.1114815,9.015225 Z"></path>
                            <path d="M76.2033333,13.680175 L74.3561852,13.680175 L74.2030741,12.60775 L74.1461481,12.60775 C73.5140741,13.462925 72.6130741,13.8915 71.4431481,13.8915 C70.5696296,13.8915 69.862963,13.609075 69.331,13.048175 C68.8481111,12.538625 68.6066667,11.90465 68.6066667,11.152175 C68.6066667,10.014575 69.0777778,9.14755 70.0258889,8.54715 C70.972037,7.94675 72.3029259,7.652475 74.0165926,7.6663 L74.0165926,7.4925 C74.0165926,6.266025 73.3766667,5.653775 72.0948519,5.653775 C71.1820741,5.653775 70.3772593,5.88485 69.6823704,6.34305 L69.2642593,4.98425 C70.124037,4.449025 71.186,4.180425 72.4383704,4.180425 C74.8567407,4.180425 76.0698519,5.464175 76.0698519,8.031675 L76.0698519,11.460275 C76.0698519,12.3905 76.115,13.131125 76.2033333,13.680175 L76.2033333,13.680175 Z M74.0676296,10.480675 L74.0676296,9.04485 C71.7984444,9.00535 70.6638519,9.631425 70.6638519,10.9211 C70.6638519,11.40695 70.7934074,11.77035 71.0584074,12.013275 C71.3234074,12.2562 71.661037,12.376675 72.0634444,12.376675 C72.5149259,12.376675 72.936963,12.2325 73.3217037,11.946125 C73.7084074,11.657775 73.9459259,11.2924 74.0342593,10.844075 C74.0558519,10.74335 74.0676296,10.6209 74.0676296,10.480675 L74.0676296,10.480675 Z"></path>
                            <path d="M87.8927778,13.680175 L86.0672222,13.680175 L85.971037,12.1851 L85.9141111,12.1851 C85.3311111,13.3227 84.3378519,13.8915 82.9421852,13.8915 C81.8272222,13.8915 80.8987407,13.451075 80.1626296,12.570225 C79.4265185,11.689375 79.0594444,10.54585 79.0594444,9.141625 C79.0594444,7.6347 79.4579259,6.41415 80.2588148,5.48195 C81.0341852,4.61295 81.9842593,4.17845 83.1149259,4.17845 C84.3574815,4.17845 85.2270741,4.599125 85.7217407,5.44245 L85.761,5.44245 L85.761,0.0981 L87.8201481,0.0981 L87.8201481,11.171925 C87.8201481,12.07845 87.8437037,12.913875 87.8927778,13.680175 L87.8927778,13.680175 Z M85.761,9.753875 L85.761,8.201525 C85.761,7.932925 85.7413704,7.715675 85.7040741,7.549775 C85.5882593,7.052075 85.338963,6.633375 84.9601111,6.29565 C84.5773333,5.957925 84.116037,5.788075 83.5840741,5.788075 C82.8165556,5.788075 82.2158889,6.0942 81.7742222,6.708425 C81.3364815,7.32265 81.1146667,8.106725 81.1146667,9.0646 C81.1146667,9.98495 81.3247037,10.7315 81.7467407,11.306225 C82.1923333,11.918475 82.793,12.2246 83.5448148,12.2246 C84.2200741,12.2246 84.7598889,11.969825 85.1701481,11.4583 C85.5666667,10.986275 85.761,10.417475 85.761,9.753875 L85.761,9.753875 Z"></path>
                            <path d="M105.486815,8.948075 C105.486815,10.37995 105.080481,11.5531 104.267815,12.47345 C103.415889,13.419475 102.289148,13.8915 100.877778,13.8915 C99.5213704,13.8915 98.4397778,13.439225 97.631037,12.530725 C96.8262222,11.6242 96.4238148,10.480675 96.4238148,9.102125 C96.4238148,7.660375 96.838,6.47735 97.6702963,5.558975 C98.5025926,4.6406 99.6214815,4.180425 101.032852,4.180425 C102.389259,4.180425 103.48263,4.6327 104.307074,5.539225 C105.092259,6.420075 105.486815,7.557675 105.486815,8.948075 L105.486815,8.948075 Z M103.355037,9.015225 C103.355037,8.1561 103.170519,7.419425 102.803444,6.8052 C102.36963,6.0626 101.757185,5.6913 100.956296,5.6913 C100.131852,5.6913 99.5037037,6.0626 99.0698889,6.8052 C98.7008519,7.419425 98.5182963,8.16795 98.5182963,9.05275 C98.5182963,9.911875 98.7028148,10.64855 99.0698889,11.262775 C99.5154815,12.005375 100.135778,12.376675 100.936667,12.376675 C101.721852,12.376675 102.340185,11.99945 102.783815,11.243025 C103.162667,10.61695 103.355037,9.87435 103.355037,9.015225 L103.355037,9.015225 Z"></path>
                            <path d="M116.548111,13.680175 L114.492889,13.680175 L114.492889,8.347675 C114.492889,6.704475 113.872593,5.882875 112.626111,5.882875 C112.01563,5.882875 111.522926,6.108025 111.142111,6.5603 C110.761296,7.012575 110.570889,7.545825 110.570889,8.1561 L110.570889,13.6782 L108.511741,13.6782 L108.511741,7.03035 C108.511741,6.2127 108.488185,5.325925 108.439111,4.366075 L110.245037,4.366075 L110.341222,5.82165 L110.398148,5.82165 C110.639593,5.369375 110.996852,4.9961 111.464037,4.697875 C112.023481,4.350275 112.645741,4.1745 113.330815,4.1745 C114.192556,4.1745 114.911,4.45495 115.482222,5.017825 C116.194778,5.7071 116.548111,6.736075 116.548111,8.102775 L116.548111,13.680175 L116.548111,13.680175 Z"></path>
                            <path d="M130.392889,5.9204 L128.12763,5.9204 L128.12763,10.44315 C128.12763,11.5926 128.530037,12.167325 129.327,12.167325 C129.696037,12.167325 130.002259,12.135725 130.243704,12.07055 L130.296704,13.640675 C129.89037,13.794725 129.356444,13.87175 128.698852,13.87175 C127.886185,13.87175 127.254111,13.6229 126.796741,13.1252 C126.337407,12.6275 126.109704,11.7901 126.109704,10.614975 L126.109704,5.9204 L124.757222,5.9204 L124.757222,4.370025 L126.109704,4.370025 L126.109704,2.663625 L128.125667,2.051375 L128.125667,4.36805 L130.390926,4.36805 L130.390926,5.9204 L130.392889,5.9204 Z"></path>
                            <path d="M141.283407,13.680175 L139.224259,13.680175 L139.224259,8.387175 C139.224259,6.7183 138.603963,5.882875 137.361407,5.882875 C136.407407,5.882875 135.755704,6.36675 135.398444,7.3345 C135.337593,7.537925 135.302259,7.786775 135.302259,8.079075 L135.302259,13.6782 L133.247037,13.6782 L133.247037,0.0981 L135.302259,0.0981 L135.302259,5.709075 L135.341519,5.709075 C135.989296,4.688 136.917778,4.17845 138.121074,4.17845 C138.973,4.17845 139.677704,4.4589 140.237148,5.021775 C140.934,5.7229 141.283407,6.7657 141.283407,8.14425 L141.283407,13.680175 L141.283407,13.680175 Z"></path>
                            <path d="M152.517444,8.584675 C152.517444,8.955975 152.489963,9.268025 152.440889,9.5228 L146.271296,9.5228 C146.298778,10.44315 146.593222,11.144275 147.164444,11.630125 C147.686593,12.064625 148.359889,12.281875 149.184333,12.281875 C150.097111,12.281875 150.929407,12.135725 151.679259,11.84145 L152.001185,13.27925 C151.123741,13.6624 150.091222,13.853975 148.895778,13.853975 C147.462815,13.853975 146.334111,13.42935 145.517519,12.5801 C144.697,11.73085 144.290667,10.591275 144.290667,9.161375 C144.290667,7.75715 144.669519,6.58795 145.433111,5.65575 C146.230074,4.66035 147.307741,4.16265 148.668074,4.16265 C149.998963,4.16265 151.009889,4.66035 151.693,5.65575 C152.244593,6.44575 152.517444,7.423375 152.517444,8.584675 L152.517444,8.584675 Z M150.554481,8.04945 C150.570185,7.435225 150.434741,6.905925 150.156,6.459575 C149.798741,5.88485 149.255,5.5965 148.518889,5.5965 C147.847556,5.5965 147.299889,5.87695 146.881778,6.439825 C146.540222,6.88815 146.338037,7.423375 146.271296,8.04945 L150.554481,8.04945 L150.554481,8.04945 Z"></path>
                        </g>
                    </g>
                </g>
            </g>
        </g>
    </g>
</svg>